<svg width="205" height="48" viewBox="0 0 205 48" fill="none" xmlns="http://www.w3.org/2000/svg">
<g clip-path="url(#clip0_243_1830)">
<path d="M25.3711 20.9539L27.125 24.3725V24.3766" fill="white"/>
<path d="M44.2464 33.1591L46.406 36.884L48.7486 40.911L48.669 47.3179H47.4759L41.6494 37.3062L39.1875 33.0722L39.6449 32.3396L39.7443 32.1782V32.1492L41.7607 28.9293L46.8396 20.8173H48.9753L48.9395 25.6638L46.7004 29.2397L44.2464 33.1591Z" fill="white"/>
<path d="M26.2266 27.3359C25.5903 27.7497 24.6835 27.5883 23.6096 26.9799L20.5273 20.987L25.3715 20.9539L27.1254 24.3725C27.209 25.8459 26.9226 26.8971 26.2266 27.3359Z" fill="white"/>
<path d="M26.6557 42.8728L23.7802 47.471H20.9962H18.9082L21.8195 42.8232L23.1677 40.6751C24.2177 39.3921 25.379 38.7506 26.1506 39.1645C26.9222 39.5784 27.125 41.1097 26.6557 42.8728Z" fill="white"/>
<path d="M23.1725 40.7041L21.8242 42.8521C21.8441 42.8066 21.868 42.7652 21.8879 42.7197C22.2373 41.9969 22.6686 41.3203 23.1725 40.7041Z" fill="white"/>
<path d="M21 47.4875L23.78 47.471L26.6555 42.8728" fill="white"/>
<path d="M40.4446 20.8586L38.7026 23.6358L36.1055 27.7745L32.1284 34.111L31.3966 35.303C30.629 35.7624 29.9529 35.8907 29.408 35.6341C28.6484 35.274 28.2626 34.2021 28.2148 32.6376L29.9529 29.8853L33.7709 23.7848L35.5766 20.8876H37.0958L40.4446 20.8586Z" fill="white"/>
</g>
<path d="M59.744 32.36C59.744 31.32 59.928 30.304 60.296 29.312C60.68 28.304 61.232 27.392 61.952 26.576C62.672 25.744 63.552 25.088 64.592 24.608C65.632 24.112 66.816 23.864 68.144 23.864C69.712 23.864 71.064 24.208 72.2 24.896C73.352 25.584 74.208 26.48 74.768 27.584L72.224 29.336C71.936 28.696 71.56 28.192 71.096 27.824C70.632 27.44 70.136 27.176 69.608 27.032C69.08 26.872 68.56 26.792 68.048 26.792C67.216 26.792 66.488 26.96 65.864 27.296C65.256 27.632 64.744 28.072 64.328 28.616C63.912 29.16 63.6 29.768 63.392 30.44C63.2 31.112 63.104 31.784 63.104 32.456C63.104 33.208 63.224 33.936 63.464 34.64C63.704 35.328 64.04 35.944 64.472 36.488C64.92 37.016 65.448 37.44 66.056 37.76C66.68 38.064 67.36 38.216 68.096 38.216C68.624 38.216 69.16 38.128 69.704 37.952C70.248 37.776 70.752 37.496 71.216 37.112C71.68 36.728 72.04 36.232 72.296 35.624L75.008 37.184C74.672 38.032 74.12 38.752 73.352 39.344C72.6 39.936 71.752 40.384 70.808 40.688C69.864 40.992 68.928 41.144 68 41.144C66.784 41.144 65.672 40.896 64.664 40.4C63.656 39.888 62.784 39.216 62.048 38.384C61.328 37.536 60.76 36.592 60.344 35.552C59.944 34.496 59.744 33.432 59.744 32.36ZM88.6051 41H85.3891V33.944C85.3891 32.968 85.1971 32.24 84.8131 31.76C84.4451 31.28 83.9331 31.04 83.2771 31.04C82.8931 31.04 82.4851 31.152 82.0531 31.376C81.6211 31.6 81.2291 31.912 80.8771 32.312C80.5411 32.696 80.2931 33.144 80.1331 33.656V41H76.9171V23.48H80.1331V30.752C80.5971 29.952 81.2291 29.328 82.0291 28.88C82.8291 28.432 83.7011 28.208 84.6451 28.208C85.4611 28.208 86.1251 28.352 86.6371 28.64C87.1491 28.912 87.5491 29.288 87.8371 29.768C88.1251 30.232 88.3251 30.76 88.4371 31.352C88.5491 31.928 88.6051 32.528 88.6051 33.152V41ZM90.5375 37.28C90.5375 36.464 90.7615 35.752 91.2095 35.144C91.6735 34.52 92.3135 34.04 93.1295 33.704C93.9455 33.368 94.8815 33.2 95.9375 33.2C96.4655 33.2 97.0015 33.24 97.5455 33.32C98.0895 33.4 98.5615 33.528 98.9615 33.704V33.032C98.9615 32.232 98.7215 31.616 98.2415 31.184C97.7775 30.752 97.0815 30.536 96.1535 30.536C95.4655 30.536 94.8095 30.656 94.1855 30.896C93.5615 31.136 92.9055 31.488 92.2175 31.952L91.1855 29.84C92.0175 29.296 92.8655 28.888 93.7295 28.616C94.6095 28.344 95.5295 28.208 96.4895 28.208C98.2815 28.208 99.6735 28.656 100.666 29.552C101.674 30.448 102.178 31.728 102.178 33.392V37.4C102.178 37.736 102.234 37.976 102.346 38.12C102.474 38.264 102.674 38.352 102.946 38.384V41C102.658 41.048 102.394 41.088 102.154 41.12C101.93 41.152 101.738 41.168 101.578 41.168C100.938 41.168 100.45 41.024 100.114 40.736C99.7935 40.448 99.5935 40.096 99.5135 39.68L99.4415 39.032C98.8975 39.736 98.2175 40.28 97.4015 40.664C96.5855 41.048 95.7535 41.24 94.9055 41.24C94.0735 41.24 93.3215 41.072 92.6495 40.736C91.9935 40.384 91.4735 39.912 91.0895 39.32C90.7215 38.712 90.5375 38.032 90.5375 37.28ZM98.3615 37.928C98.5375 37.736 98.6815 37.544 98.7935 37.352C98.9055 37.16 98.9615 36.984 98.9615 36.824V35.552C98.5775 35.392 98.1615 35.272 97.7135 35.192C97.2655 35.096 96.8415 35.048 96.4415 35.048C95.6095 35.048 94.9215 35.232 94.3775 35.6C93.8495 35.952 93.5855 36.424 93.5855 37.016C93.5855 37.336 93.6735 37.64 93.8495 37.928C94.0255 38.216 94.2815 38.448 94.6175 38.624C94.9535 38.8 95.3535 38.888 95.8175 38.888C96.2975 38.888 96.7695 38.8 97.2335 38.624C97.6975 38.432 98.0735 38.2 98.3615 37.928ZM105.183 41V28.424H108.399V41H105.183ZM105.183 26.672V23.48H108.399V26.672H105.183ZM122.988 41H119.772V33.944C119.772 32.936 119.596 32.2 119.244 31.736C118.892 31.272 118.404 31.04 117.78 31.04C117.348 31.04 116.908 31.152 116.46 31.376C116.028 31.6 115.636 31.912 115.284 32.312C114.932 32.696 114.676 33.144 114.516 33.656V41H111.3V28.424H114.204V30.752C114.524 30.208 114.932 29.752 115.428 29.384C115.924 29 116.492 28.712 117.132 28.52C117.788 28.312 118.476 28.208 119.196 28.208C119.98 28.208 120.62 28.352 121.116 28.64C121.628 28.912 122.012 29.288 122.268 29.768C122.54 30.232 122.724 30.76 122.82 31.352C122.932 31.944 122.988 32.544 122.988 33.152V41ZM124.947 32.36C124.947 31.32 125.131 30.304 125.499 29.312C125.883 28.304 126.435 27.392 127.155 26.576C127.875 25.744 128.755 25.088 129.795 24.608C130.835 24.112 132.019 23.864 133.347 23.864C134.915 23.864 136.267 24.208 137.403 24.896C138.555 25.584 139.411 26.48 139.971 27.584L137.427 29.336C137.139 28.696 136.763 28.192 136.299 27.824C135.835 27.44 135.339 27.176 134.811 27.032C134.283 26.872 133.763 26.792 133.251 26.792C132.419 26.792 131.691 26.96 131.067 27.296C130.459 27.632 129.947 28.072 129.531 28.616C129.115 29.16 128.803 29.768 128.595 30.44C128.403 31.112 128.307 31.784 128.307 32.456C128.307 33.208 128.427 33.936 128.667 34.64C128.907 35.328 129.243 35.944 129.675 36.488C130.123 37.016 130.651 37.44 131.259 37.76C131.883 38.064 132.563 38.216 133.299 38.216C133.827 38.216 134.363 38.128 134.907 37.952C135.451 37.776 135.955 37.496 136.419 37.112C136.883 36.728 137.243 36.232 137.499 35.624L140.211 37.184C139.875 38.032 139.323 38.752 138.555 39.344C137.803 39.936 136.955 40.384 136.011 40.688C135.067 40.992 134.131 41.144 133.203 41.144C131.987 41.144 130.875 40.896 129.867 40.4C128.859 39.888 127.987 39.216 127.251 38.384C126.531 37.536 125.963 36.592 125.547 35.552C125.147 34.496 124.947 33.432 124.947 32.36ZM153.808 41H150.592V33.944C150.592 32.968 150.4 32.24 150.016 31.76C149.648 31.28 149.136 31.04 148.48 31.04C148.096 31.04 147.688 31.152 147.256 31.376C146.824 31.6 146.432 31.912 146.08 32.312C145.744 32.696 145.496 33.144 145.336 33.656V41H142.12V23.48H145.336V30.752C145.8 29.952 146.432 29.328 147.232 28.88C148.032 28.432 148.904 28.208 149.848 28.208C150.664 28.208 151.328 28.352 151.84 28.64C152.352 28.912 152.752 29.288 153.04 29.768C153.328 30.232 153.528 30.76 153.64 31.352C153.752 31.928 153.808 32.528 153.808 33.152V41ZM162.437 41.24C161.429 41.24 160.517 41.072 159.701 40.736C158.885 40.384 158.189 39.912 157.613 39.32C157.037 38.712 156.589 38.024 156.269 37.256C155.965 36.472 155.813 35.648 155.813 34.784C155.813 33.584 156.077 32.488 156.605 31.496C157.149 30.504 157.917 29.712 158.909 29.12C159.917 28.512 161.101 28.208 162.461 28.208C163.837 28.208 165.013 28.512 165.989 29.12C166.965 29.712 167.709 30.504 168.221 31.496C168.749 32.472 169.013 33.528 169.013 34.664C169.013 34.856 169.005 35.056 168.989 35.264C168.973 35.456 168.957 35.616 168.941 35.744H159.221C159.285 36.384 159.469 36.944 159.773 37.424C160.093 37.904 160.493 38.272 160.973 38.528C161.469 38.768 161.997 38.888 162.557 38.888C163.197 38.888 163.797 38.736 164.357 38.432C164.933 38.112 165.325 37.696 165.533 37.184L168.293 37.952C167.989 38.592 167.549 39.16 166.973 39.656C166.413 40.152 165.749 40.544 164.981 40.832C164.213 41.104 163.365 41.24 162.437 41.24ZM159.149 33.704H165.725C165.661 33.064 165.477 32.512 165.173 32.048C164.885 31.568 164.501 31.2 164.021 30.944C163.541 30.672 163.005 30.536 162.413 30.536C161.837 30.536 161.309 30.672 160.829 30.944C160.365 31.2 159.981 31.568 159.677 32.048C159.389 32.512 159.213 33.064 159.149 33.704ZM176.828 41.24C175.804 41.24 174.884 41.072 174.068 40.736C173.252 40.384 172.556 39.904 171.98 39.296C171.404 38.672 170.956 37.968 170.636 37.184C170.332 36.4 170.18 35.576 170.18 34.712C170.18 33.528 170.444 32.448 170.972 31.472C171.516 30.48 172.284 29.688 173.276 29.096C174.268 28.504 175.444 28.208 176.804 28.208C178.164 28.208 179.332 28.504 180.308 29.096C181.284 29.688 182.012 30.464 182.492 31.424L179.348 32.384C179.076 31.92 178.716 31.568 178.268 31.328C177.82 31.072 177.324 30.944 176.78 30.944C176.172 30.944 175.612 31.104 175.1 31.424C174.604 31.728 174.212 32.168 173.924 32.744C173.636 33.304 173.492 33.96 173.492 34.712C173.492 35.448 173.636 36.104 173.924 36.68C174.228 37.24 174.628 37.688 175.124 38.024C175.62 38.344 176.172 38.504 176.78 38.504C177.164 38.504 177.524 38.44 177.86 38.312C178.212 38.184 178.524 38.008 178.796 37.784C179.068 37.56 179.268 37.304 179.396 37.016L182.54 37.976C182.252 38.6 181.828 39.16 181.268 39.656C180.724 40.152 180.076 40.544 179.324 40.832C178.588 41.104 177.756 41.24 176.828 41.24ZM193.111 41L189.439 35.576L187.735 37.256V41H184.519V23.48H187.735V34.088L192.799 28.448H196.207L191.527 33.776L196.543 41H193.111Z" fill="#007AFF"/>
<defs>
<clipPath id="clip0_243_1830">
<rect width="39" height="47" fill="white" transform="translate(10 0.5)"/>
</clipPath>
</defs>
</svg>
