<svg width="346" height="68" viewBox="0 0 346 68" fill="none" xmlns="http://www.w3.org/2000/svg">
<g clip-path="url(#clip0_266_1689)">
<path d="M24.8711 30.4539L26.625 33.8725V33.8766" fill="#007AFF"/>
<path d="M43.7464 42.6592L45.906 46.3841L48.2486 50.4112L48.169 56.818H46.9759L41.1494 46.8063L38.6875 42.5723L39.1449 41.8398L39.2443 41.6783V41.6494L41.2607 38.4294L46.3396 30.3174H48.4753L48.4395 35.1639L46.2004 38.7398L43.7464 42.6592Z" fill="#007AFF"/>
<path d="M25.7266 36.8359C25.0903 37.2497 24.1835 37.0883 23.1096 36.4799L20.0273 30.487L24.8715 30.4539L26.6254 33.8725C26.709 35.3459 26.4226 36.3971 25.7266 36.8359Z" fill="#007AFF"/>
<path d="M26.1557 52.3729L23.2802 56.9711H20.4962H18.4082L21.3195 52.3233L22.6677 50.1753C23.7177 48.8922 24.879 48.2507 25.6506 48.6646C26.4222 49.0785 26.625 50.6098 26.1557 52.3729Z" fill="#007AFF"/>
<path d="M22.6725 50.2041L21.3242 52.3521C21.3441 52.3066 21.368 52.2652 21.3879 52.2197C21.7373 51.4969 22.1686 50.8203 22.6725 50.2041Z" fill="#007AFF"/>
<path d="M20.5 56.9875L23.28 56.971L26.1555 52.3728" fill="#007AFF"/>
<path d="M39.9446 30.3586L38.2026 33.1358L35.6055 37.2745L31.6284 43.611L30.8966 44.803C30.129 45.2624 29.4529 45.3907 28.908 45.1341C28.1484 44.774 27.7626 43.7021 27.7148 42.1376L29.4529 39.3853L33.2709 33.2848L35.0766 30.3876H36.5958L39.9446 30.3586Z" fill="#007AFF"/>
</g>
<path d="M58.744 43.36C58.744 42.32 58.928 41.304 59.296 40.312C59.68 39.304 60.232 38.392 60.952 37.576C61.672 36.744 62.552 36.088 63.592 35.608C64.632 35.112 65.816 34.864 67.144 34.864C68.712 34.864 70.064 35.208 71.2 35.896C72.352 36.584 73.208 37.48 73.768 38.584L71.224 40.336C70.936 39.696 70.56 39.192 70.096 38.824C69.632 38.44 69.136 38.176 68.608 38.032C68.08 37.872 67.56 37.792 67.048 37.792C66.216 37.792 65.488 37.96 64.864 38.296C64.256 38.632 63.744 39.072 63.328 39.616C62.912 40.16 62.6 40.768 62.392 41.44C62.2 42.112 62.104 42.784 62.104 43.456C62.104 44.208 62.224 44.936 62.464 45.64C62.704 46.328 63.04 46.944 63.472 47.488C63.92 48.016 64.448 48.44 65.056 48.76C65.68 49.064 66.36 49.216 67.096 49.216C67.624 49.216 68.16 49.128 68.704 48.952C69.248 48.776 69.752 48.496 70.216 48.112C70.68 47.728 71.04 47.232 71.296 46.624L74.008 48.184C73.672 49.032 73.12 49.752 72.352 50.344C71.6 50.936 70.752 51.384 69.808 51.688C68.864 51.992 67.928 52.144 67 52.144C65.784 52.144 64.672 51.896 63.664 51.4C62.656 50.888 61.784 50.216 61.048 49.384C60.328 48.536 59.76 47.592 59.344 46.552C58.944 45.496 58.744 44.432 58.744 43.36ZM87.6051 52H84.3891V44.944C84.3891 43.968 84.1971 43.24 83.8131 42.76C83.4451 42.28 82.9331 42.04 82.2771 42.04C81.8931 42.04 81.4851 42.152 81.0531 42.376C80.6211 42.6 80.2291 42.912 79.8771 43.312C79.5411 43.696 79.2931 44.144 79.1331 44.656V52H75.9171V34.48H79.1331V41.752C79.5971 40.952 80.2291 40.328 81.0291 39.88C81.8291 39.432 82.7011 39.208 83.6451 39.208C84.4611 39.208 85.1251 39.352 85.6371 39.64C86.1491 39.912 86.5491 40.288 86.8371 40.768C87.1251 41.232 87.3251 41.76 87.4371 42.352C87.5491 42.928 87.6051 43.528 87.6051 44.152V52ZM89.5375 48.28C89.5375 47.464 89.7615 46.752 90.2095 46.144C90.6735 45.52 91.3135 45.04 92.1295 44.704C92.9455 44.368 93.8815 44.2 94.9375 44.2C95.4655 44.2 96.0015 44.24 96.5455 44.32C97.0895 44.4 97.5615 44.528 97.9615 44.704V44.032C97.9615 43.232 97.7215 42.616 97.2415 42.184C96.7775 41.752 96.0815 41.536 95.1535 41.536C94.4655 41.536 93.8095 41.656 93.1855 41.896C92.5615 42.136 91.9055 42.488 91.2175 42.952L90.1855 40.84C91.0175 40.296 91.8655 39.888 92.7295 39.616C93.6095 39.344 94.5295 39.208 95.4895 39.208C97.2815 39.208 98.6735 39.656 99.6655 40.552C100.674 41.448 101.178 42.728 101.178 44.392V48.4C101.178 48.736 101.234 48.976 101.346 49.12C101.474 49.264 101.674 49.352 101.946 49.384V52C101.658 52.048 101.394 52.088 101.154 52.12C100.93 52.152 100.738 52.168 100.578 52.168C99.9375 52.168 99.4495 52.024 99.1135 51.736C98.7935 51.448 98.5935 51.096 98.5135 50.68L98.4415 50.032C97.8975 50.736 97.2175 51.28 96.4015 51.664C95.5855 52.048 94.7535 52.24 93.9055 52.24C93.0735 52.24 92.3215 52.072 91.6495 51.736C90.9935 51.384 90.4735 50.912 90.0895 50.32C89.7215 49.712 89.5375 49.032 89.5375 48.28ZM97.3615 48.928C97.5375 48.736 97.6815 48.544 97.7935 48.352C97.9055 48.16 97.9615 47.984 97.9615 47.824V46.552C97.5775 46.392 97.1615 46.272 96.7135 46.192C96.2655 46.096 95.8415 46.048 95.4415 46.048C94.6095 46.048 93.9215 46.232 93.3775 46.6C92.8495 46.952 92.5855 47.424 92.5855 48.016C92.5855 48.336 92.6735 48.64 92.8495 48.928C93.0255 49.216 93.2815 49.448 93.6175 49.624C93.9535 49.8 94.3535 49.888 94.8175 49.888C95.2975 49.888 95.7695 49.8 96.2335 49.624C96.6975 49.432 97.0735 49.2 97.3615 48.928ZM104.183 52V39.424H107.399V52H104.183ZM104.183 37.672V34.48H107.399V37.672H104.183ZM121.988 52H118.772V44.944C118.772 43.936 118.596 43.2 118.244 42.736C117.892 42.272 117.404 42.04 116.78 42.04C116.348 42.04 115.908 42.152 115.46 42.376C115.028 42.6 114.636 42.912 114.284 43.312C113.932 43.696 113.676 44.144 113.516 44.656V52H110.3V39.424H113.204V41.752C113.524 41.208 113.932 40.752 114.428 40.384C114.924 40 115.492 39.712 116.132 39.52C116.788 39.312 117.476 39.208 118.196 39.208C118.98 39.208 119.62 39.352 120.116 39.64C120.628 39.912 121.012 40.288 121.268 40.768C121.54 41.232 121.724 41.76 121.82 42.352C121.932 42.944 121.988 43.544 121.988 44.152V52ZM123.947 43.36C123.947 42.32 124.131 41.304 124.499 40.312C124.883 39.304 125.435 38.392 126.155 37.576C126.875 36.744 127.755 36.088 128.795 35.608C129.835 35.112 131.019 34.864 132.347 34.864C133.915 34.864 135.267 35.208 136.403 35.896C137.555 36.584 138.411 37.48 138.971 38.584L136.427 40.336C136.139 39.696 135.763 39.192 135.299 38.824C134.835 38.44 134.339 38.176 133.811 38.032C133.283 37.872 132.763 37.792 132.251 37.792C131.419 37.792 130.691 37.96 130.067 38.296C129.459 38.632 128.947 39.072 128.531 39.616C128.115 40.16 127.803 40.768 127.595 41.44C127.403 42.112 127.307 42.784 127.307 43.456C127.307 44.208 127.427 44.936 127.667 45.64C127.907 46.328 128.243 46.944 128.675 47.488C129.123 48.016 129.651 48.44 130.259 48.76C130.883 49.064 131.563 49.216 132.299 49.216C132.827 49.216 133.363 49.128 133.907 48.952C134.451 48.776 134.955 48.496 135.419 48.112C135.883 47.728 136.243 47.232 136.499 46.624L139.211 48.184C138.875 49.032 138.323 49.752 137.555 50.344C136.803 50.936 135.955 51.384 135.011 51.688C134.067 51.992 133.131 52.144 132.203 52.144C130.987 52.144 129.875 51.896 128.867 51.4C127.859 50.888 126.987 50.216 126.251 49.384C125.531 48.536 124.963 47.592 124.547 46.552C124.147 45.496 123.947 44.432 123.947 43.36ZM152.808 52H149.592V44.944C149.592 43.968 149.4 43.24 149.016 42.76C148.648 42.28 148.136 42.04 147.48 42.04C147.096 42.04 146.688 42.152 146.256 42.376C145.824 42.6 145.432 42.912 145.08 43.312C144.744 43.696 144.496 44.144 144.336 44.656V52H141.12V34.48H144.336V41.752C144.8 40.952 145.432 40.328 146.232 39.88C147.032 39.432 147.904 39.208 148.848 39.208C149.664 39.208 150.328 39.352 150.84 39.64C151.352 39.912 151.752 40.288 152.04 40.768C152.328 41.232 152.528 41.76 152.64 42.352C152.752 42.928 152.808 43.528 152.808 44.152V52ZM161.437 52.24C160.429 52.24 159.517 52.072 158.701 51.736C157.885 51.384 157.189 50.912 156.613 50.32C156.037 49.712 155.589 49.024 155.269 48.256C154.965 47.472 154.813 46.648 154.813 45.784C154.813 44.584 155.077 43.488 155.605 42.496C156.149 41.504 156.917 40.712 157.909 40.12C158.917 39.512 160.101 39.208 161.461 39.208C162.837 39.208 164.013 39.512 164.989 40.12C165.965 40.712 166.709 41.504 167.221 42.496C167.749 43.472 168.013 44.528 168.013 45.664C168.013 45.856 168.005 46.056 167.989 46.264C167.973 46.456 167.957 46.616 167.941 46.744H158.221C158.285 47.384 158.469 47.944 158.773 48.424C159.093 48.904 159.493 49.272 159.973 49.528C160.469 49.768 160.997 49.888 161.557 49.888C162.197 49.888 162.797 49.736 163.357 49.432C163.933 49.112 164.325 48.696 164.533 48.184L167.293 48.952C166.989 49.592 166.549 50.16 165.973 50.656C165.413 51.152 164.749 51.544 163.981 51.832C163.213 52.104 162.365 52.24 161.437 52.24ZM158.149 44.704H164.725C164.661 44.064 164.477 43.512 164.173 43.048C163.885 42.568 163.501 42.2 163.021 41.944C162.541 41.672 162.005 41.536 161.413 41.536C160.837 41.536 160.309 41.672 159.829 41.944C159.365 42.2 158.981 42.568 158.677 43.048C158.389 43.512 158.213 44.064 158.149 44.704ZM175.828 52.24C174.804 52.24 173.884 52.072 173.068 51.736C172.252 51.384 171.556 50.904 170.98 50.296C170.404 49.672 169.956 48.968 169.636 48.184C169.332 47.4 169.18 46.576 169.18 45.712C169.18 44.528 169.444 43.448 169.972 42.472C170.516 41.48 171.284 40.688 172.276 40.096C173.268 39.504 174.444 39.208 175.804 39.208C177.164 39.208 178.332 39.504 179.308 40.096C180.284 40.688 181.012 41.464 181.492 42.424L178.348 43.384C178.076 42.92 177.716 42.568 177.268 42.328C176.82 42.072 176.324 41.944 175.78 41.944C175.172 41.944 174.612 42.104 174.1 42.424C173.604 42.728 173.212 43.168 172.924 43.744C172.636 44.304 172.492 44.96 172.492 45.712C172.492 46.448 172.636 47.104 172.924 47.68C173.228 48.24 173.628 48.688 174.124 49.024C174.62 49.344 175.172 49.504 175.78 49.504C176.164 49.504 176.524 49.44 176.86 49.312C177.212 49.184 177.524 49.008 177.796 48.784C178.068 48.56 178.268 48.304 178.396 48.016L181.54 48.976C181.252 49.6 180.828 50.16 180.268 50.656C179.724 51.152 179.076 51.544 178.324 51.832C177.588 52.104 176.756 52.24 175.828 52.24ZM192.111 52L188.439 46.576L186.735 48.256V52H183.519V34.48H186.735V45.088L191.799 39.448H195.207L190.527 44.776L195.543 52H192.111Z" fill="url(#paint0_linear_266_1689)"/>
<defs>
<linearGradient id="paint0_linear_266_1689" x1="58" y1="44" x2="196" y2="44" gradientUnits="userSpaceOnUse">
<stop stop-color="#007AFF"/>
<stop offset="1" stop-color="#141E30"/>
</linearGradient>
<clipPath id="clip0_266_1689">
<rect width="39" height="47" fill="white" transform="translate(9.5 10)"/>
</clipPath>
</defs>
</svg>
